<svg width="120" height="32" viewBox="0 0 120 32" fill="none" xmlns="http://www.w3.org/2000/svg">
  <path d="M26.8 16C26.8 22.0751 21.8751 27 15.8 27C9.72487 27 4.8 22.0751 4.8 16C4.8 9.92487 9.72487 5 15.8 5C21.8751 5 26.8 9.92487 26.8 16Z" fill="black"/>
  <path d="M37.8 27H47.8V25H40.8V5H37.8V27Z" fill="black"/>
  <path d="M51.8 27H61.8V25H54.8V17H60.8V15H54.8V7H61.8V5H51.8V27Z" fill="black"/>
  <path d="M66.8 27H69.8V19H75.8C79.8 19 82.8 16 82.8 12C82.8 8 79.8 5 75.8 5H66.8V27ZM69.8 17V7H75.8C78.2 7 79.8 8.6 79.8 12C79.8 15.4 78.2 17 75.8 17H69.8Z" fill="black"/>
  <path d="M86.8 27H89.8V19H95.8C99.8 19 102.8 16 102.8 12C102.8 8 99.8 5 95.8 5H86.8V27ZM89.8 17V7H95.8C98.2 7 99.8 8.6 99.8 12C99.8 15.4 98.2 17 95.8 17H89.8Z" fill="black"/>
  <path d="M106.8 27H116.8V25H109.8V17H115.8V15H109.8V7H116.8V5H106.8V27Z" fill="black"/>
</svg>