<svg width="120" height="32" viewBox="0 0 120 32" fill="none" xmlns="http://www.w3.org/2000/svg">
  <path d="M27.8 5H23.2L18.8 16.8L14.4 5H9.8L16.4 22.8L15.6 25C15 26.6 14 27.2 12.6 27.2C11.6 27.2 10.6 26.8 10 26.4L8.6 30C9.6 30.6 11.2 31 12.6 31C15.6 31 18 29.6 19.4 26L27.8 5Z" fill="black"/>
  <path d="M37.8 5.2C32.4 5.2 28.8 9 28.8 14.6C28.8 20.2 32.4 24 37.8 24C43.2 24 46.8 20.2 46.8 14.6C46.8 9 43.2 5.2 37.8 5.2ZM37.8 19.6C35.4 19.6 33.6 17.6 33.6 14.6C33.6 11.6 35.4 9.6 37.8 9.6C40.2 9.6 42 11.6 42 14.6C42 17.6 40.2 19.6 37.8 19.6Z" fill="black"/>
  <path d="M57.8 5.2C56.2 5.2 54.8 6 53.8 7.4V5.4H49.2V31H54V21.8C55 23 56.4 23.8 57.8 23.8C61.8 23.8 65 20.4 65 14.6C65 8.8 61.8 5.2 57.8 5.2ZM56.6 19.4C55 19.4 54 18.4 53.8 17.2V11.8C54 10.6 55.2 9.6 56.6 9.6C58.8 9.6 60.2 11.4 60.2 14.4C60.2 17.4 58.8 19.4 56.6 19.4Z" fill="black"/>
  <path d="M74.8 5.2C69.4 5.2 65.8 9 65.8 14.6C65.8 20.2 69.4 24 74.8 24C80.2 24 83.8 20.2 83.8 14.6C83.8 9 80.2 5.2 74.8 5.2ZM74.8 19.6C72.4 19.6 70.6 17.6 70.6 14.6C70.6 11.6 72.4 9.6 74.8 9.6C77.2 9.6 79 11.6 79 14.6C79 17.6 77.2 19.6 74.8 19.6Z" fill="black"/>
  <path d="M94.8 5.4H91.2L86.8 17.2L82.4 5.4H78.6L85.2 23.2L84.4 25.4C83.8 27 82.8 27.6 81.4 27.6C80.4 27.6 79.4 27.2 78.8 26.8L77.4 30.4C78.4 31 80 31.4 81.4 31.4C84.4 31.4 86.8 30 88.2 26.4L94.8 5.4Z" fill="black"/>
</svg>