<svg width="120" height="32" viewBox="0 0 120 32" fill="none" xmlns="http://www.w3.org/2000/svg">
  <path d="M58.8 12.4C56.4 11.6 54.8 11 54.8 9.8C54.8 8.8 55.6 8.2 57 8.2C59 8.2 61.2 9 63 10L64.2 6.8C62.4 5.8 59.8 5 57.2 5C52.8 5 50 7.2 50 10.2C50 13.8 53.2 15 56.4 16C59 16.8 60.2 17.4 60.2 18.8C60.2 20 59.2 20.6 57.6 20.6C55.2 20.6 52.6 19.6 50.8 18.4L49.4 21.6C51.4 23 54.4 24 57.4 24C62 24 65 21.8 65 18.6C65 14.6 61.8 13.4 58.8 12.4Z" fill="black"/>
  <path d="M77.8 5.2C76.2 5.2 74.8 6 73.8 7.4V5.4H69.2V31H74V21.8C75 23 76.4 23.8 77.8 23.8C81.8 23.8 85 20.4 85 14.6C85 8.8 81.8 5.2 77.8 5.2ZM76.6 19.4C75 19.4 74 18.4 73.8 17.2V11.8C74 10.6 75.2 9.6 76.6 9.6C78.8 9.6 80.2 11.4 80.2 14.4C80.2 17.4 78.8 19.4 76.6 19.4Z" fill="black"/>
  <path d="M94.8 5.2C89.4 5.2 85.8 9 85.8 14.6C85.8 20.2 89.4 24 94.8 24C100.2 24 103.8 20.2 103.8 14.6C103.8 9 100.2 5.2 94.8 5.2ZM94.8 19.6C92.4 19.6 90.6 17.6 90.6 14.6C90.6 11.6 92.4 9.6 94.8 9.6C97.2 9.6 99 11.6 99 14.6C99 17.6 97.2 19.6 94.8 19.6Z" fill="black"/>
  <path d="M114.8 5.4H111.2L106.8 17.2L102.4 5.4H98.6L105.2 23.2L104.4 25.4C103.8 27 102.8 27.6 101.4 27.6C100.4 27.6 99.4 27.2 98.8 26.8L97.4 30.4C98.4 31 100 31.4 101.4 31.4C104.4 31.4 106.8 30 108.2 26.4L114.8 5.4Z" fill="black"/>
  <path d="M35.8 9.4C34.8 6.8 32.4 5 29.4 5C25 5 21.8 8.2 21.8 12.6C21.8 17 25 20.2 29.4 20.2C32.4 20.2 34.8 18.4 35.8 15.8H31.4C30.8 16.6 29.8 17 28.8 17C27 17 25.6 15.6 25.6 13.8H36V12.6C36 11.4 35.8 10.4 35.8 9.4ZM25.6 11.4C25.8 9.6 27.2 8.2 29 8.2C30.8 8.2 32.2 9.6 32.4 11.4H25.6Z" fill="black"/>
</svg>