<svg width="120" height="32" viewBox="0 0 120 32" fill="none" xmlns="http://www.w3.org/2000/svg">
  <path d="M16 5L4 17L16 29L28 17L16 5ZM16 23L10 17L16 11L22 17L16 23Z" fill="black"/>
  <path d="M44.8 9.4C43.8 6.8 41.4 5 38.4 5C34 5 30.8 8.2 30.8 12.6C30.8 17 34 20.2 38.4 20.2C41.4 20.2 43.8 18.4 44.8 15.8H40.4C39.8 16.6 38.8 17 37.8 17C36 17 34.6 15.6 34.6 13.8H45V12.6C45 11.4 44.8 10.4 44.8 9.4ZM34.6 11.4C34.8 9.6 36.2 8.2 38 8.2C39.8 8.2 41.2 9.6 41.4 11.4H34.6Z" fill="black"/>
  <path d="M54.8 5.2C53.2 5.2 51.8 6 50.8 7.4V5.4H46.2V31H51V21.8C52 23 53.4 23.8 54.8 23.8C58.8 23.8 62 20.4 62 14.6C62 8.8 58.8 5.2 54.8 5.2ZM53.6 19.4C52 19.4 51 18.4 50.8 17.2V11.8C51 10.6 52.2 9.6 53.6 9.6C55.8 9.6 57.2 11.4 57.2 14.4C57.2 17.4 55.8 19.4 53.6 19.4Z" fill="black"/>
  <path d="M71.8 5.2C66.4 5.2 62.8 9 62.8 14.6C62.8 20.2 66.4 24 71.8 24C77.2 24 80.8 20.2 80.8 14.6C80.8 9 77.2 5.2 71.8 5.2ZM71.8 19.6C69.4 19.6 67.6 17.6 67.6 14.6C67.6 11.6 69.4 9.6 71.8 9.6C74.2 9.6 76 11.6 76 14.6C76 17.6 74.2 19.6 71.8 19.6Z" fill="black"/>
</svg>